<?xml version="1.0" encoding="utf-8"?>
<!-- Generator: Adobe Illustrator 27.2.0, SVG Export Plug-In . SVG Version: 6.00 Build 0)  -->
<svg version="1.1" id="Layer_1" xmlns="http://www.w3.org/2000/svg" xmlns:xlink="http://www.w3.org/1999/xlink" x="0px" y="0px"
	 viewBox="0 0 1152 576" style="enable-background:new 0 0 1152 576;" xml:space="preserve">
<style type="text/css">
	.st0{opacity:0.93;fill:#262262;}
	.st1{opacity:0.93;fill:#662D91;}
	.st2{fill:#662D91;}
</style>
<path class="st0" d="M259.4,226.4c-12.9-1.5-13.8-16.9-31.2-28c-12.7-8.1-28.7-10.4-77-0.6c-62,12.5-93,18.8-110.6,37.5
	c-23.9,25.4-21.7,59.9-26.4,87.1C6.1,369.8,1.3,500,8.5,587.1c105.3-1.3,185-1,239.3-0.5c33.4,0.3,63.8,0.8,119.6,1
	c80.5,0.3,83.6-0.4,124.1,0.4c83.8,1.6,125.7,2.4,144.5,6.2c29.5,5.9,56.9,14.7,86.5,7.3c6.2-1.6,20-5.7,39.5-6.2
	c14.2-0.4,19.1,1.5,32.5,2c23.1,0.9,33.1-3.9,51.6-6.2c27.4-3.5,31.3,3.6,69.4,5.9c41.6,2.5,37.9-5.9,91.7-5.4
	c26.1,0.2,38.2,2.3,73.2,1.5c25.3-0.6,38-0.9,42-3.1c24.1-12.8,22.5-54.4,14.9-197.4c-4-75.8,2.4-100.4-17.7-125.3
	c-17.3-21.4-52.9-44.3-65.1-52.2c-17.8-11.5-25.6-14.5-31-16.2c-20.6-6.5-36.6-3.9-67.7-0.4c-20.3,2.3-40.8,3.3-61.1,5.7
	c-73.3,8.8-104.9-42.8-195.4-52.2c-42.1-4.4-78.7,3.5-152.1,19.1c-71.7,15.3-81.9,26.7-121.6,22.9c-55.5-5.3-77.7-31.7-109.5-16.5
	C285.7,192,279.6,228.7,259.4,226.4z"/>
<path class="st0" d="M291.9,119.1"/>
<path class="st0" d="M851.5-28"/>
<path class="st1" d="M264.3,222c-12.9-1.5-13.8-16.9-31.2-28c-12.7-8.1-28.7-10.4-77-0.6c-62,12.5-93,18.8-110.6,37.5
	c-23.9,25.4-21.7,59.9-26.4,87.1C11,365.4,6.2,495.5,13.4,582.7c105.3-1.3,185-1,239.3-0.5c33.4,0.3,63.8,0.8,119.6,1
	c80.5,0.3,83.6-0.4,124.1,0.4c83.8,1.6,125.7,2.4,144.5,6.2c29.5,5.9,56.9,14.7,86.5,7.3c6.2-1.6,20-5.7,39.5-6.2
	c14.2-0.4,19.1,1.5,32.5,2c23.1,0.9,33.1-3.9,51.6-6.2c27.4-3.5,31.3,3.6,69.4,5.9c41.6,2.5,37.9-5.9,91.7-5.4
	c26.1,0.2,38.2,2.3,73.2,1.5c25.3-0.6,38-0.9,42-3.1c24.1-12.8,22.5-54.4,14.9-197.4c-4-75.8,2.4-100.4-17.7-125.3
	c-17.3-21.4-52.9-44.3-65.1-52.2c-17.8-11.5-25.6-14.5-31-16.2c-20.6-6.5-36.6-3.9-67.7-0.4c-20.3,2.3-40.8,3.3-61.1,5.7
	c-73.3,8.8-104.9-42.8-195.4-52.2c-42.1-4.4-78.7,3.5-152.1,19.1c-71.7,15.3-81.9,26.7-121.6,22.9c-55.5-5.3-77.7-31.7-109.5-16.5
	C290.6,187.5,284.5,224.3,264.3,222z"/>
<path class="st1" d="M291.8,124.6"/>
<path class="st2" d="M-712.1-115.6"/>
</svg>
