<?xml version="1.0" encoding="utf-8"?>
<!-- Generator: Adobe Illustrator 27.2.0, SVG Export Plug-In . SVG Version: 6.00 Build 0)  -->
<svg version="1.1" id="Layer_1" xmlns="http://www.w3.org/2000/svg" xmlns:xlink="http://www.w3.org/1999/xlink" x="0px" y="0px"
	 viewBox="0 0 1152 576" style="enable-background:new 0 0 1152 576;" xml:space="preserve">
<style type="text/css">
	.st0{opacity:0.93;fill:#262262;}
	.st1{opacity:0.93;fill:#662D91;}
	.st2{fill:#262262;}
	.st3{fill:#662D91;}
</style>
<path class="st0" d="M-3.9,306.3c4.8,9.1,32.9,60.2,92.6,85.8c27.9,11.9,45.7,15.3,68.6,15.4c33.8,0.2,44.3-12,68.4-5.2
	c6.2,1.8,42.5,12.1,56.9,43.1c20.4,44-15.8,103,1.4,121c1.6,1.7,6.6,6.8,13,6.6c6.8-0.3,11.7-6.6,13.2-8.6
	c16.1-21.1-13.2-59.6,2.3-99.4c6.3-16.1,17.1-25.2,20.7-28.2c25.2-20.7,68-25,80.5-8.6c14.4,18.9-10.4,67.1,0,86.4
	c1,1.8,3.8,6.9,8.6,7.8c5.1,1,10.1-3.1,12.1-5.2c13.8-15-19.7-53.2-5.8-76c1.7-2.8,6.2-8.7,20.7-13.1c46.9-14.1,106.3,15.3,158,25.9
	c99.7,20.3,185.4-26.4,198.3,1.7c5.7,12.6-5.4,34.9,6.3,43.1c2.8,2,7.6,3.6,10.3,1.7c3.7-2.5,2.1-9.8,1.1-19.5
	c-1.6-15.2-2.9-28.6,1.1-37.9c5.5-12.7,23.5-23.4,31.6-19c20.1,11-20.6,114.4,1.7,127c7.9,4.5,16.1,2.9,16.1,2.9s7.2-1.4,13.2-8
	c17.5-19.2-17.3-74.3,5.8-115.6c4.7-8.5,9.9-13.4,17.2-20.1c65.8-59.9,163.9-23.8,213.4-74.1c14.2-14.4,18.7-40.2,27.3-91.1
	c8.3-49.6,12.9-185.6,5.1-276.7C1046-29.9,962.7-29.9,906-30.3c-34.9-0.2-66.7-0.6-125-0.7c-84.1-0.1-87.4,0.7-129.7,0
	c-87.6-1.4-131.4-2.2-151-6c-30.8-6-59.5-15.2-90.5-7.3c-6.5,1.7-20.9,6-41.2,6.7c-14.9,0.4-20-1.5-33.9-2
	c-24.1-0.8-34.6,4.1-53.9,6.7c-28.6,3.7-32.7-3.7-72.5-6c-43.5-2.5-39.6,6.3-95.8,6c-27.2-0.2-39.9-2.3-76.5-1.3
	C9.6-33.6-3.6-33.2-7.9-30.9C-33-17.5-31.2,26-22.8,175.4C-18.8,246.3-16.6,282.2-3.9,306.3z"/>
<path class="st1" d="M-3.9,300.8C1,309.9,29,361,88.8,386.6c27.9,11.9,45.7,15.3,68.6,15.4c33.8,0.2,44.3-12,68.4-5.2
	c6.2,1.8,42.5,12.1,56.9,43.1c20.4,44-15.8,103,1.4,121c1.6,1.7,6.6,6.8,13,6.6c6.8-0.3,11.7-6.6,13.2-8.6
	c16.1-21.1-13.2-59.6,2.3-99.4c6.3-16.1,17.1-25.2,20.7-28.2c25.2-20.7,68-25,80.5-8.6c14.4,18.9-10.4,67.1,0,86.4
	c1,1.8,3.8,6.9,8.6,7.8c5.1,1,10.1-3.1,12.1-5.2c13.8-15-19.7-53.2-5.8-76c1.7-2.8,6.2-8.7,20.7-13.1c46.9-14.1,106.3,15.3,158,25.9
	c99.7,20.3,185.4-26.4,198.3,1.7c5.7,12.6-5.4,34.9,6.3,43.1c2.8,2,7.6,3.6,10.3,1.7c3.7-2.5,2.1-9.8,1.1-19.5
	c-1.6-15.2-2.9-28.6,1.1-37.9c5.5-12.7,23.5-23.4,31.6-19c20.1,11-20.6,114.4,1.7,127c7.9,4.5,16.1,2.9,16.1,2.9s7.2-1.4,13.2-8
	c17.5-19.2-17.3-74.3,5.8-115.6c4.7-8.5,9.9-13.4,17.2-20.1c65.8-59.9,163.9-23.8,213.4-74.1c14.2-14.4,18.7-40.2,27.3-91.1
	c8.3-49.6,12.9-185.6,5.1-276.7C1046-35.4,962.7-35.4,906-35.7c-34.9-0.2-66.7-0.6-125-0.7c-84.1-0.1-87.4,0.7-129.7,0
	c-87.6-1.4-131.4-2.2-151-6c-30.8-6-59.5-15.2-90.5-7.3c-6.5,1.7-20.9,6-41.2,6.7c-14.9,0.4-20-1.5-33.9-2
	c-24.1-0.8-34.6,4.1-53.9,6.7c-28.6,3.7-32.7-3.7-72.5-6c-43.5-2.5-39.6,6.3-95.8,6c-27.2-0.2-39.9-2.3-76.5-1.3
	C9.6-39-3.6-38.7-7.9-36.4C-33-22.9-31.2,20.5-22.8,169.9C-18.8,240.8-16.6,276.8-3.9,300.8z"/>
<path class="st2" d="M594.2,483c-10.8-3-16.2-4.6-21.3-5.2c-5.8-0.7-28.1-3.5-31,3.4c-2.9,6.9,14.1,21.3,29.3,28.7
	c8.7,4.2,27,13.2,37.4,4.6c6.5-5.4,8.9-17,4.6-23.6C611.9,489.2,610,487.4,594.2,483z"/>
<path class="st1" d="M594.2,480.2c-10.8-3-16.2-4.6-21.3-5.2c-5.8-0.7-28.1-3.5-31,3.4c-2.9,6.9,14.1,21.3,29.3,28.7
	c8.7,4.2,27,13.2,37.4,4.6c6.5-5.4,8.9-17,4.6-23.6C611.9,486.3,610,484.6,594.2,480.2z"/>
<path class="st3" d="M-712.1-115.6"/>
</svg>
