<?xml version="1.0" encoding="UTF-8"?>
<svg id="Layer_1" data-name="Layer 1" xmlns="http://www.w3.org/2000/svg" viewBox="0 0 417.65 288.51">
  <defs>
    <style>
      .cls-1 {
        fill: #fff;
      }

      .cls-2 {
        fill: #662d91;
      }

      .cls-3 {
        fill: #262262;
      }
    </style>
  </defs>
  <path class="cls-2" d="m220.43,200.66c16.57,9.51,50.29,25.92,96,28.08,42.16,1.99,74.97-9.06,92.31-16.32-2.28,5.62-5.54,12.14-10.29,18.85-11.16,15.78-24.85,24.64-33.54,29.25-6.62,3.31-9.73,7.26-11.35,10.38-3.3,6.37-1.97,12.26-6.81,15.79-.5.37-3.54,2.58-5.88,1.55-3.65-1.61-1.35-9.26-5.99-13.74-2.22-2.14-5.15-2.72-7.27-2.88-9.24,1.14-27.96,2.14-49-6.36-5.9-2.39-20.78-9.08-34.8-23.92-14.7-15.56-20.82-32.01-23.38-40.68Z"/>
  <path class="cls-3" d="m235.58,113.46c26.67,4.09,48.12,3.46,63.18,2.02,18.61-1.79,31.86-5.25,61.61-7.74,13.19-1.1,24.1-1.55,31.47-1.76,3.42,4.17,7.09,9.19,10.64,15.07,3.16,5.23,5.65,10.21,7.63,14.71-8.92-.86-22.39-1.6-38.59-.16-36.32,3.23-51.84,14.33-78.64,18.27-16.73,2.46-41.12,2.61-72.62-9.03,1.49-5.2,3.71-11.38,7.1-18.01,2.68-5.24,5.54-9.7,8.22-13.37Z"/>
  <path class="cls-3" d="m216.58,178.3c35.13,11.97,62.73,12.42,81.56,10.56,22.08-2.19,36.41-7.98,74.3-12.69,18.86-2.35,34.41-3.29,44.58-3.72.68,4.68,1.19,12.03-.62,20.74-1.8,8.68-5.18,15.21-7.67,19.23-8.36,3.48-18.04,6.91-28.97,9.75-15.89,4.13-30.3,5.94-42.31,6.63-16.53.51-22.47,5.08-24.77,9.29-3.69,6.76-.64,17.36-5.26,19.2-1.3.51-2.55.08-2.79,0-4.29-1.48-1.2-11-5.88-16.1-1.49-1.62-4.26-3.37-9.91-3.41-6.06.17-13.06-.09-20.74-1.24-15.78-2.36-28.38-7.55-37.18-12.13-2.42-3.26-5.09-7.46-7.4-12.64-3.72-8.33-5.07-15.93-5.57-21.36"/>
  <path class="cls-2" d="m220.26,144.84c19.3,7.26,34.91,8.79,44.76,9.03,43.33,1.07,64.56-20.46,113.93-20.74,13.77-.08,24.84,1.52,31.16,2.64,2.01,5.12,4.05,11.56,5.39,19.14,1.17,6.61,1.54,12.56,1.53,17.54-14.86,1.24-29.72,2.48-44.58,3.72-3.04.21-4.74,1.26-5.71,2.1-8.03,7,3.64,26.95-4.82,35.05-1.11,1.06-3.1,2.43-4.02,1.86-1.47-.92.96-6.03,1.86-12.07.19-1.27,1.92-12.96-2.17-18.27-4.7-6.09-15.8-2.09-50.15,4.33-25.09,4.69-30.92,4.75-34.37,10.53-6.66,11.18,5.52,27.22-.93,32.2-3.23,2.49-10,1.35-12.69-2.17-5.04-6.59,6.59-18.37.69-30.09-1.24-2.46-2.75-3.92-4.41-5.52-6.35-6.12-12.79-6.38-25.39-10.53-3.2-1.05-7.99-2.75-13.76-5.29-.28-4.89-.27-10.73.48-17.27.71-6.21,1.91-11.65,3.2-16.19Z"/>
  <path class="cls-2" d="m256.87,91.94c18.22-13.54,36.38-17.36,44.26-18.6,29.65-4.65,52.56,5.48,59.96,9.13,17.1,8.42,27.95,19.85,33.65,26.82-13.81-2.25-25.44-2.22-34.37-1.55-19.91,1.51-19.94,5.71-42.11,8.05-17.26,1.82-31.21.83-33.44,7.12-1.31,3.71,2.09,8.1-.53,10.79-1.65,1.69-4.99,1.98-6.28.67-1.58-1.61.9-4.65-.62-8.05-.7-1.57-1.96-2.55-4.64-4.02-3.01-1.66-7.63-3.84-13.93-5.57-7.75-1.08-15.5-2.17-23.24-3.25,4.29-5.89,11.15-13.99,21.3-21.53Z"/>
  <path class="cls-1" d="m355.2,232.54c0-21.27-16.05-28.19-47.92-37.16-31.34-8.71-55.17-21.01-55.17-59.71,0-28.7,21.51-55.61,61.39-55.61,23.83,0,37.29,7.94,46.1,7.94,4.41,0,5.69-1.78,7.51-5.12h2.85l1.81,51.77h-4.13c-13.22-23.58-30.83-49.2-57.51-49.2-18.64,0-31.59,10.76-31.59,25.88,0,18.96,17.61,25.36,43.76,32.29,28.77,7.68,60.61,17.42,60.61,59.96,0,36.9-25.37,61.25-63.46,61.25-25.12,0-46.88-7.69-54.12-7.69-4.15,0-5.72,2.82-7.78,7.69h-3.63l-2.59-60.99h4.41c12.95,25.62,38.07,55.61,66.56,55.61,15.54,0,32.9-8.2,32.9-26.91Z"/>
  <path class="cls-2" d="m259.44,229.72c.03,1.52.14,3.53,1.55,5.08,1.72,1.89,4.81,2.48,7.12,1.73,4.76-1.54,6.98-9.05,5.57-14.74-.84-3.41-2.87-5.69-4.02-6.81-2.89-.55-5.78-1.1-8.66-1.65-1.46,7.53-1.63,13.03-1.55,16.39Z"/>
  <path class="cls-3" d="m328.48,139.01c-5.73,6.48-6.9,11.73-6.83,15.43.1,4.93,2.43,8.54.33,10.89-1.58,1.77-4.84,1.92-7.12.93-.63-.27-2.64-1.27-4.35-5.32-2.73-6.45-.19-10.06-1.84-16.97-.5-2.08-1.54-5.16-4.02-8.67"/>
</svg>