<?xml version="1.0" encoding="UTF-8"?>
<svg id="Layer_1" data-name="Layer 1" xmlns="http://www.w3.org/2000/svg" viewBox="0 0 328.6646 191.6309">
  <path d="m98.8464,8.7486C50.0888,6.5021,25.7099,5.3789,11.4901,20.8175-7.84,41.8045.3413,82.425,13.2143,100.1279c8.6314,11.8699,17.2413,16.6666,17.2414,16.6667,8.6631,4.8264,13.3535,3.5199,18.3908,8.6207,6.372,6.4523,6.3427,16.1129,6.3218,22.9885-.0593,19.5527-10.0057,27.6823-4.5977,36.7816,2.2105,3.7194,6.7162,7.1459,10.3448,6.3218,3.9374-.8941,5.676-6.528,6.3218-8.6207,4.008-12.9873-4.7606-19.8344-2.8736-35.6322.6235-5.2196,1.1429-9.5685,4.2881-13.4049,7.2849-8.8858,21.5794-6.3903,40.5395-6.1353,23.3112.3135,20.5589-3.2054,47.1264-4.023,40.8103-1.2559,44.5124,7.1331,82.7586,6.8965,31.7972-.1967,48.7231-.3014,64.3678-12.6437,27.7418-21.8859,25.2423-61.5716,25.1064-63.3107-.6318-8.087-2.1839-27.9527-16.4858-41.287C307.4131,9.0093,295.6574-.0027,223.5591,5.3003c-43.0994,3.17-59.5881,7.9122-97.1264,5.7471-14.6987-.8477-13.3569-1.6433-27.5862-2.2989Z" style="fill: #262262; opacity: .93;"/>
  <path d="m98.8464,5.0723C50.0888,2.8259,25.7099,1.7026,11.4901,17.1413-7.84,38.1283.3413,78.7487,13.2143,96.4516c8.6314,11.8699,17.2413,16.6666,17.2414,16.6667,8.6631,4.8264,13.3535,3.5199,18.3908,8.6207,6.372,6.4523,6.3427,16.1129,6.3218,22.9885-.0593,19.5527-10.0057,27.6823-4.5977,36.7816,2.2105,3.7194,6.7162,7.1459,10.3448,6.3218,3.9374-.8941,5.676-6.528,6.3218-8.6207,4.008-12.9873-4.7606-19.8344-2.8736-35.6322.6235-5.2196,1.1429-9.5685,4.2881-13.4049,7.2849-8.8858,21.5794-6.3903,40.5395-6.1353,23.3112.3135,20.5589-3.2054,47.1264-4.023,40.8103-1.2559,44.5124,7.1331,82.7586,6.8965,31.7972-.1967,48.7231-.3014,64.3678-12.6437,27.7418-21.8859,25.2423-61.5716,25.1064-63.3107-.6318-8.087-2.1839-27.9527-16.4858-41.287-4.6517-4.337-16.4074-13.3489-88.5057-8.046-43.0994,3.17-59.5881,7.9122-97.1264,5.7471-14.6987-.8477-13.3569-1.6433-27.5862-2.2989Z" style="fill: #662d91; opacity: .93;"/>
</svg>