<?xml version="1.0" encoding="utf-8"?>
<!-- Generator: Adobe Illustrator 27.2.0, SVG Export Plug-In . SVG Version: 6.00 Build 0)  -->
<svg version="1.1" id="Layer_1" xmlns="http://www.w3.org/2000/svg" xmlns:xlink="http://www.w3.org/1999/xlink" x="0px" y="0px"
	 viewBox="0 0 1152 576" style="enable-background:new 0 0 1152 576;" xml:space="preserve">
<style type="text/css">
	.st0{opacity:0.93;fill:#262262;}
	.st1{opacity:0.93;fill:#662D91;}
	.st2{fill:#262262;}
	.st3{fill:#662D91;}
</style>
<path class="st0" d="M259,212.4c-6-1.8-24.6-7.5-37.4,2.9c-14.9,12.1-13.9,39.7-4.6,45.4c8.1,4.9,20.2-8,29.9-1.7
	c6.8,4.4,4.9,13.5,10.9,15.5c6.3,2.1,14.8-5.5,19-11.5c8.1-11.7,8.8-30.2-1.1-41.4C270.6,215.9,264.5,214.1,259,212.4z"/>
<path class="st0" d="M718.7,215.3c-9.5,7.6-14.4,21.8-10.8,34.8c4.1,15.1,17.8,22.2,26.5,24.4c8.1,2,9-1.1,21.5-0.2
	c18.7,1.4,23.1,8.8,31.7,5.8c9.1-3.2,15-15.3,15-25.3c-0.1-23.5-32.6-36.7-37.4-38.7C754.7,211.9,733.7,203.3,718.7,215.3z"/>
<path class="st0" d="M423.9,189.3c-48.8-2.2-73.1-3.4-87.4,12.1c-19.3,21-11.1,61.6,1.7,79.3c8.6,11.9,17.2,16.7,17.2,16.7
	c8.7,4.8,13.4,3.5,18.4,8.6c6.4,6.5,6.3,16.1,6.3,23c-0.1,19.6-10,27.7-4.6,36.8c2.2,3.7,6.7,7.1,10.3,6.3c3.9-0.9,5.7-6.5,6.3-8.6
	c4-13-4.8-19.8-2.9-35.6c0.6-5.2,1.1-9.6,4.3-13.4c7.3-8.9,21.6-6.4,40.5-6.1c23.3,0.3,20.6-3.2,47.1-4c40.8-1.3,44.5,7.1,82.8,6.9
	c31.8-0.2,48.7-0.3,64.4-12.6c27.7-21.9,25.2-61.6,25.1-63.3c-0.6-8.1-2.2-28-16.5-41.3c-4.7-4.3-16.4-13.3-88.5-8
	c-43.1,3.2-59.6,7.9-97.1,5.7C436.8,190.7,438.1,189.9,423.9,189.3z"/>
<path class="st1" d="M423.9,185.6c-48.8-2.2-73.1-3.4-87.4,12.1c-19.3,21-11.1,61.6,1.7,79.3c8.6,11.9,17.2,16.7,17.2,16.7
	c8.7,4.8,13.4,3.5,18.4,8.6c6.4,6.5,6.3,16.1,6.3,23c-0.1,19.6-10,27.7-4.6,36.8c2.2,3.7,6.7,7.1,10.3,6.3c3.9-0.9,5.7-6.5,6.3-8.6
	c4-13-4.8-19.8-2.9-35.6c0.6-5.2,1.1-9.6,4.3-13.4c7.3-8.9,21.6-6.4,40.5-6.1c23.3,0.3,20.6-3.2,47.1-4c40.8-1.3,44.5,7.1,82.8,6.9
	c31.8-0.2,48.7-0.3,64.4-12.6c27.7-21.9,25.2-61.6,25.1-63.3c-0.6-8.1-2.2-28-16.5-41.3c-4.7-4.3-16.4-13.3-88.5-8
	c-43.1,3.2-59.6,7.9-97.1,5.7C436.8,187,438.1,186.2,423.9,185.6z"/>
<path class="st1" d="M717.1,211.1c-9.5,7.6-14.4,21.8-10.8,34.8c4.1,15.1,17.8,22.2,26.5,24.4c8.1,2,9-1.1,21.5-0.2
	c18.7,1.4,23.1,8.8,31.7,5.8c9.1-3.2,15-15.3,15-25.3c-0.1-23.5-32.6-36.7-37.4-38.7C753.1,207.7,732.1,199.1,717.1,211.1z"/>
<path class="st2" d="M852.9,239.8c-6.1-0.4-7-2.3-12.4-1.8c-1.9,0.2-9.3,0.8-11.6,5.4c-1.6,3.1,0.9,4.8,0.1,10.3
	c-0.7,5-3,5.6-4.3,10.4c-1.7,6.4,0.5,12.2,1.2,14c0.4,1,4.5,11.3,14.2,14c2.2,0.6,4.8,1.3,6.7,0c3.4-2.2,0.7-7.6,3.7-13.6
	c2.8-5.7,9.7-10.1,13.6-8.4c3.9,1.7,4.2,9.5,4.2,10.1c0.1,5.7-2.8,7.9-1.4,12.4c0.7,2.2,2.4,4.9,4.1,4.8c2.3-0.2,3.5-5.3,3.5-5.6
	c1-4.4-0.9-6.4-1.8-12.2c-0.4-2.8-1.2-7.6,0.5-12.5c2.1-6.2,5.9-6.1,7-10.7c1.7-6.9-4.3-16.8-11.6-18.7
	C863.4,236.4,861.9,240.3,852.9,239.8z"/>
<path class="st1" d="M853.1,237.9c-6.1-0.4-7-2.3-12.4-1.8c-1.9,0.2-9.3,0.8-11.6,5.4c-1.6,3.1,0.9,4.8,0.1,10.3
	c-0.7,5-3,5.6-4.3,10.4c-1.7,6.4,0.5,12.2,1.2,14c0.4,1,4.5,11.3,14.2,14c2.2,0.6,4.8,1.3,6.7,0c3.4-2.2,0.7-7.6,3.7-13.6
	c2.8-5.7,9.7-10.1,13.6-8.4c3.9,1.7,4.2,9.5,4.2,10.1c0.1,5.7-2.8,7.9-1.4,12.4c0.7,2.2,2.4,4.9,4.1,4.8c2.3-0.2,3.5-5.3,3.5-5.6
	c1-4.4-0.9-6.4-1.8-12.2c-0.4-2.8-1.2-7.6,0.5-12.5c2.1-6.2,5.9-6.1,7-10.7c1.7-6.9-4.3-16.8-11.6-18.7
	C863.6,234.5,862,238.5,853.1,237.9z"/>
<path class="st3" d="M259,210.9c-6-1.8-24.6-7.5-37.4,2.9c-14.9,12.1-13.9,39.7-4.6,45.4c8.1,4.9,20.2-8,29.9-1.7
	c6.8,4.4,4.9,13.5,10.9,15.5c6.3,2.1,14.8-5.5,19-11.5c8.1-11.7,8.8-30.2-1.1-41.4C270.6,214.4,264.5,212.5,259,210.9z"/>
<path class="st2" d="M136,256.1c-2.5,0.1-5.6,0.1-8.6,2c-8.4,5.3-11.2,22-3,32.3c5.8,7.4,17.9,12.3,27.8,6.6
	c9.4-5.5,11.6-17.8,8.1-26.8C155.7,258.9,143.1,256,136,256.1z"/>
<path class="st3" d="M136,253.7c-2.5,0.1-5.6,0.1-8.6,2c-8.4,5.3-11.2,22-3,32.3c5.8,7.4,17.9,12.3,27.8,6.6
	c9.4-5.5,11.6-17.8,8.1-26.8C155.7,256.5,143.1,253.6,136,253.7z"/>
</svg>
